<svg version="1.1" viewBox="0.0 0.0 833.0813648293963 369.83727034120733" fill="none" stroke="none" stroke-linecap="square" stroke-miterlimit="10" xmlns:xlink="http://www.w3.org/1999/xlink" xmlns="http://www.w3.org/2000/svg"><clipPath id="p.0"><path d="m0 0l833.08136 0l0 369.83728l-833.08136 0l0 -369.83728z" clip-rule="nonzero"/></clipPath><g clip-path="url(#p.0)"><path fill="#252525" d="m0 0l833.08136 0l0 369.83728l-833.08136 0z" fill-rule="evenodd"/><path fill="#ffffff" d="m60.400414 154.77728c10.263039 0 15.394554 7.0886536 15.394554 21.265945c0 7.567734 -1.3213806 12.974655 -3.964157 16.22078c-2.642784 3.246109 -6.452919 4.869156 -11.430397 4.869156l-19.431679 0l0 -42.35588zm-40.200954 -22.351242l0 128.32896l20.769276 0l0 -41.094604l20.477436 0c11.154781 0 19.796474 -3.695877 25.925114 -11.087616c6.128639 -7.391754 9.192963 -18.23494 9.192963 -32.529556c0 -14.294632 -3.0643234 -25.137817 -9.192963 -32.529556c-6.128639 -7.391754 -14.770332 -11.087631 -25.925114 -11.087631z" fill-rule="evenodd"/><path fill="#ffffff" d="m154.38335 154.77728c4.572159 0 8.228256 1.6817169 10.968323 5.045166c2.7400513 3.3634338 4.110077 7.782837 4.110077 13.258209c0 5.4558105 -1.4186554 10.021881 -4.2559967 13.698196c-2.8373413 3.6567688 -6.444809 5.485153 -10.822403 5.485153l-19.57759 0l0 -26.135117c0 -7.567734 3.0886383 -11.351608 9.265915 -11.351608zm-16.294403 -22.351242c-8.657913 0 -14.83519 2.1999207 -18.53183 6.599777c-3.68042 4.380295 -5.5206375 11.380951 -5.5206375 21.001953l0 100.727234l20.76928 0l0 -47.577057l14.93248 0l20.769272 47.577057l24.076797 0l-23.760635 -51.712906c5.4800873 -2.4052582 10.084671 -6.7562103 13.813751 -13.052887c3.729065 -6.316223 5.5935974 -13.805756 5.5935974 -22.468567c0 -11.889374 -3.1129608 -21.705933 -9.338882 -29.449661c-6.2259064 -7.7632904 -14.6163025 -11.644943 -25.171188 -11.644943z" fill-rule="evenodd"/><path fill="#ffffff" d="m247.4602 153.69199c9.176727 0 15.159454 3.969635 17.94815 11.90892c2.3833618 6.844208 3.5750427 16.035004 3.5750427 27.572403l0 6.658432c0 9.132141 -0.6971741 16.64122 -2.0915222 22.527237c-0.7944641 3.7349854 -1.9375 6.7464294 -3.4291077 9.034363c-1.4916382 2.2683716 -3.5831604 4.1847534 -6.2745667 5.7491302c-2.6914215 1.5643921 -5.9584045 2.3465881 -9.800964 2.3465881c-3.826355 0 -7.109543 -0.81152344 -9.849594 -2.4345856c-2.7400513 -1.6230621 -4.807251 -3.578537 -6.201599 -5.8664703c-3.5831604 -5.3971405 -5.3747253 -15.849243 -5.3747253 -31.356262l0 -6.658432c0 -11.889374 1.1430359 -21.08017 3.429123 -27.572403c2.788681 -7.9392853 8.811935 -11.90892 18.069763 -11.90892zm-0.21888733 -22.321915c-14.591995 0 -25.252258 4.869171 -31.98079 14.607513c-6.712326 9.7187805 -10.068481 24.551163 -10.068481 44.497147l0 9.35701c0 21.881927 3.3075256 37.692047 9.922562 47.43039c6.631241 9.718765 17.364471 14.578171 32.199677 14.578171c14.851395 0 25.633255 -4.8594055 32.345596 -14.578171c6.7285156 -9.738342 10.092773 -25.362686 10.092773 -46.873077l0 -9.738327c0 -19.82866 -3.4372253 -34.66104 -10.311676 -44.497147c-6.87442 -9.855667 -17.607666 -14.783508 -32.19966 -14.783508z" fill-rule="evenodd"/><path fill="#ffffff" d="m348.18716 154.77728c10.263031 0 15.394562 7.0886536 15.394562 21.265945c0 7.567734 -1.3214111 12.974655 -3.9641724 16.22078c-2.6427612 3.246109 -6.4529114 4.869156 -11.430389 4.869156l-19.431671 0l0 -42.35588zm-40.20096 -22.351242l0 128.32896l20.769287 0l0 -41.094604l20.477417 0c11.154785 0 19.796478 -3.695877 25.92511 -11.087616c6.128662 -7.391754 9.192963 -18.23494 9.192963 -32.529556c0 -14.294632 -3.0643005 -25.137817 -9.192963 -32.529556c-6.1286316 -7.391754 -14.770325 -11.087631 -25.92511 -11.087631z" fill-rule="evenodd"/><path fill="#ffffff" d="m401.8232 132.42604l0 128.32896l20.769287 0l0 -128.32896z" fill-rule="evenodd"/><path fill="#ffffff" d="m438.8849 132.42604l0 22.351242l28.38144 0l0 105.97772l20.769287 0l0 -105.97772l28.551666 0l0 -22.351242z" fill-rule="evenodd"/><path fill="#ffffff" d="m532.71686 132.42604l0 94.45012c0 12.6129 2.4157715 21.412598 7.2473755 26.399094c4.831543 4.986496 13.221924 7.4797516 25.171204 7.4797516l37.64734 0l0 -22.351242l-36.139526 0c-4.9937134 0 -8.439026 -0.9581909 -10.335999 -2.8745728c-1.8807373 -1.9163818 -2.821106 -5.4069214 -2.821106 -10.471634l0 -17.83406l33.02655 0l1.4835205 -22.351242l-34.51007 0l0 -30.09497l49.29663 0l0 -22.351242z" fill-rule="evenodd"/><path fill="#ffffff" d="m657.3354 131.37007c-7.7661743 0 -14.389343 1.5546265 -19.869446 4.663849c-13.943481 7.7046204 -20.915222 26.751083 -20.915222 57.13939l0 10.823624c0 38.56224 13.59491 57.84337 40.784668 57.84337c12.354553 0 21.912292 -4.38031 28.673279 -13.140884c6.7771606 -8.780151 10.16571 -21.344177 10.16571 -37.692047l-19.261414 0c-0.7944946 9.738327 -2.5130615 16.924744 -5.1558228 21.559265c-2.6428223 4.6149445 -7.42572 6.9224243 -14.348816 6.9224243c-6.9230957 0 -12.030273 -2.522583 -15.321594 -7.567749c-3.1777954 -5.0451508 -4.7667236 -14.480377 -4.7667236 -28.305695l0 -11.175613c0 -4.9082794 0.09729004 -8.809479 0.29187012 -11.703613c0.38909912 -9.014801 1.7834473 -15.379913 4.1829834 -19.095337c3.3886108 -5.2993774 8.568787 -7.949066 15.540527 -7.949066c5.982666 0 10.368408 1.8088226 13.1571045 5.426483c2.7886963 3.5980988 4.7261963 8.946365 5.812439 16.044785l19.431702 0c0 -14.177292 -3.5669556 -25.020477 -10.700806 -32.529556c-7.117676 -7.509079 -16.351135 -11.263626 -27.70044 -11.263626z" fill-rule="evenodd"/><path fill="#ffffff" d="m712.33276 132.42604l0 128.32896l20.769287 0l0 -51.8889l38.984924 0l0 51.8889l20.769287 0l0 -128.32896l-20.769287 0l0 54.264816l-38.984924 0l0 -54.264816z" fill-rule="evenodd"/><path stroke="#ffffff" stroke-width="1.0" stroke-linejoin="round" stroke-linecap="butt" d="m60.400414 154.77728c10.263039 0 15.394554 7.0886536 15.394554 21.265945c0 7.567734 -1.3213806 12.974655 -3.964157 16.22078c-2.642784 3.246109 -6.452919 4.869156 -11.430397 4.869156l-19.431679 0l0 -42.35588zm-40.200954 -22.351242l0 128.32896l20.769276 0l0 -41.094604l20.477436 0c11.154781 0 19.796474 -3.695877 25.925114 -11.087616c6.128639 -7.391754 9.192963 -18.23494 9.192963 -32.529556c0 -14.294632 -3.0643234 -25.137817 -9.192963 -32.529556c-6.128639 -7.391754 -14.770332 -11.087631 -25.925114 -11.087631z" fill-rule="evenodd"/><path stroke="#ffffff" stroke-width="1.0" stroke-linejoin="round" stroke-linecap="butt" d="m154.38335 154.77728c4.572159 0 8.228256 1.6817169 10.968323 5.045166c2.7400513 3.3634338 4.110077 7.782837 4.110077 13.258209c0 5.4558105 -1.4186554 10.021881 -4.2559967 13.698196c-2.8373413 3.6567688 -6.444809 5.485153 -10.822403 5.485153l-19.57759 0l0 -26.135117c0 -7.567734 3.0886383 -11.351608 9.265915 -11.351608zm-16.294403 -22.351242c-8.657913 0 -14.83519 2.1999207 -18.53183 6.599777c-3.68042 4.380295 -5.5206375 11.380951 -5.5206375 21.001953l0 100.727234l20.76928 0l0 -47.577057l14.93248 0l20.769272 47.577057l24.076797 0l-23.760635 -51.712906c5.4800873 -2.4052582 10.084671 -6.7562103 13.813751 -13.052887c3.729065 -6.316223 5.5935974 -13.805756 5.5935974 -22.468567c0 -11.889374 -3.1129608 -21.705933 -9.338882 -29.449661c-6.2259064 -7.7632904 -14.6163025 -11.644943 -25.171188 -11.644943z" fill-rule="evenodd"/><path stroke="#ffffff" stroke-width="1.0" stroke-linejoin="round" stroke-linecap="butt" d="m247.4602 153.69199c9.176727 0 15.159454 3.969635 17.94815 11.90892c2.3833618 6.844208 3.5750427 16.035004 3.5750427 27.572403l0 6.658432c0 9.132141 -0.6971741 16.64122 -2.0915222 22.527237c-0.7944641 3.7349854 -1.9375 6.7464294 -3.4291077 9.034363c-1.4916382 2.2683716 -3.5831604 4.1847534 -6.2745667 5.7491302c-2.6914215 1.5643921 -5.9584045 2.3465881 -9.800964 2.3465881c-3.826355 0 -7.109543 -0.81152344 -9.849594 -2.4345856c-2.7400513 -1.6230621 -4.807251 -3.578537 -6.201599 -5.8664703c-3.5831604 -5.3971405 -5.3747253 -15.849243 -5.3747253 -31.356262l0 -6.658432c0 -11.889374 1.1430359 -21.08017 3.429123 -27.572403c2.788681 -7.9392853 8.811935 -11.90892 18.069763 -11.90892zm-0.21888733 -22.321915c-14.591995 0 -25.252258 4.869171 -31.98079 14.607513c-6.712326 9.7187805 -10.068481 24.551163 -10.068481 44.497147l0 9.35701c0 21.881927 3.3075256 37.692047 9.922562 47.43039c6.631241 9.718765 17.364471 14.578171 32.199677 14.578171c14.851395 0 25.633255 -4.8594055 32.345596 -14.578171c6.7285156 -9.738342 10.092773 -25.362686 10.092773 -46.873077l0 -9.738327c0 -19.82866 -3.4372253 -34.66104 -10.311676 -44.497147c-6.87442 -9.855667 -17.607666 -14.783508 -32.19966 -14.783508z" fill-rule="evenodd"/><path stroke="#ffffff" stroke-width="1.0" stroke-linejoin="round" stroke-linecap="butt" d="m348.18716 154.77728c10.263031 0 15.394562 7.0886536 15.394562 21.265945c0 7.567734 -1.3214111 12.974655 -3.9641724 16.22078c-2.6427612 3.246109 -6.4529114 4.869156 -11.430389 4.869156l-19.431671 0l0 -42.35588zm-40.20096 -22.351242l0 128.32896l20.769287 0l0 -41.094604l20.477417 0c11.154785 0 19.796478 -3.695877 25.92511 -11.087616c6.128662 -7.391754 9.192963 -18.23494 9.192963 -32.529556c0 -14.294632 -3.0643005 -25.137817 -9.192963 -32.529556c-6.1286316 -7.391754 -14.770325 -11.087631 -25.92511 -11.087631z" fill-rule="evenodd"/><path stroke="#ffffff" stroke-width="1.0" stroke-linejoin="round" stroke-linecap="butt" d="m401.8232 132.42604l0 128.32896l20.769287 0l0 -128.32896z" fill-rule="evenodd"/><path stroke="#ffffff" stroke-width="1.0" stroke-linejoin="round" stroke-linecap="butt" d="m438.8849 132.42604l0 22.351242l28.38144 0l0 105.97772l20.769287 0l0 -105.97772l28.551666 0l0 -22.351242z" fill-rule="evenodd"/><path stroke="#ffffff" stroke-width="1.0" stroke-linejoin="round" stroke-linecap="butt" d="m532.71686 132.42604l0 94.45012c0 12.6129 2.4157715 21.412598 7.2473755 26.399094c4.831543 4.986496 13.221924 7.4797516 25.171204 7.4797516l37.64734 0l0 -22.351242l-36.139526 0c-4.9937134 0 -8.439026 -0.9581909 -10.335999 -2.8745728c-1.8807373 -1.9163818 -2.821106 -5.4069214 -2.821106 -10.471634l0 -17.83406l33.02655 0l1.4835205 -22.351242l-34.51007 0l0 -30.09497l49.29663 0l0 -22.351242z" fill-rule="evenodd"/><path stroke="#ffffff" stroke-width="1.0" stroke-linejoin="round" stroke-linecap="butt" d="m657.3354 131.37007c-7.7661743 0 -14.389343 1.5546265 -19.869446 4.663849c-13.943481 7.7046204 -20.915222 26.751083 -20.915222 57.13939l0 10.823624c0 38.56224 13.59491 57.84337 40.784668 57.84337c12.354553 0 21.912292 -4.38031 28.673279 -13.140884c6.7771606 -8.780151 10.16571 -21.344177 10.16571 -37.692047l-19.261414 0c-0.7944946 9.738327 -2.5130615 16.924744 -5.1558228 21.559265c-2.6428223 4.6149445 -7.42572 6.9224243 -14.348816 6.9224243c-6.9230957 0 -12.030273 -2.522583 -15.321594 -7.567749c-3.1777954 -5.0451508 -4.7667236 -14.480377 -4.7667236 -28.305695l0 -11.175613c0 -4.9082794 0.09729004 -8.809479 0.29187012 -11.703613c0.38909912 -9.014801 1.7834473 -15.379913 4.1829834 -19.095337c3.3886108 -5.2993774 8.568787 -7.949066 15.540527 -7.949066c5.982666 0 10.368408 1.8088226 13.1571045 5.426483c2.7886963 3.5980988 4.7261963 8.946365 5.812439 16.044785l19.431702 0c0 -14.177292 -3.5669556 -25.020477 -10.700806 -32.529556c-7.117676 -7.509079 -16.351135 -11.263626 -27.70044 -11.263626z" fill-rule="evenodd"/><path stroke="#ffffff" stroke-width="1.0" stroke-linejoin="round" stroke-linecap="butt" d="m712.33276 132.42604l0 128.32896l20.769287 0l0 -51.8889l38.984924 0l0 51.8889l20.769287 0l0 -128.32896l-20.769287 0l0 54.264816l-38.984924 0l0 -54.264816z" fill-rule="evenodd"/><path fill="#000000" fill-opacity="0.0" d="m18.108923 280.0l776.126 -0.50393677" fill-rule="evenodd"/><path stroke="#ffffff" stroke-width="12.0" stroke-linejoin="round" stroke-linecap="butt" d="m18.108923 280.0l776.126 -0.50393677" fill-rule="evenodd"/></g></svg>