<svg version="1.1" viewBox="0.0 0.0 934.0 235.1994750656168" fill="none" stroke="none" stroke-linecap="square" stroke-miterlimit="10" xmlns:xlink="http://www.w3.org/1999/xlink" xmlns="http://www.w3.org/2000/svg"><clipPath id="p.0"><path d="m0 0l934.0 0l0 235.19948l-934.0 0l0 -235.19948z" clip-rule="nonzero"/></clipPath><g clip-path="url(#p.0)"><path fill="#2a3042" d="m0 0l934.0 0l0 235.19948l-934.0 0z" fill-rule="evenodd"/><path fill="#ffffff" d="m125.40041 60.77728c10.263039 0 15.394554 7.0886497 15.394554 21.265942c0 7.5677414 -1.3213806 12.97467 -3.964157 16.22078c-2.6427765 3.2461166 -6.4529266 4.869171 -11.430397 4.869171l-19.431679 0l0 -42.355892zm-40.20095 -22.351234l0 128.32896l20.769272 0l0 -41.094604l20.47744 0c11.154778 0 19.79647 -3.695877 25.925117 -11.087624c6.1286316 -7.3917465 9.192947 -18.234932 9.192947 -32.529556c0 -14.294617 -3.0643158 -25.137806 -9.192947 -32.529556c-6.128647 -7.3917465 -14.77034 -11.08762 -25.925117 -11.08762z" fill-rule="evenodd"/><path fill="#ffffff" d="m219.38335 60.77728c4.572159 0 8.228256 1.6817207 10.968323 5.045162c2.7400513 3.3634415 4.110077 7.782852 4.110077 13.258217c0 5.4558105 -1.4186554 10.021881 -4.2559967 13.698196c-2.8373413 3.6567688 -6.444809 5.4851456 -10.822403 5.4851456l-19.57759 0l0 -26.135109c0 -7.5677414 3.0886383 -11.351612 9.265915 -11.351612zm-16.294403 -22.351234c-8.657913 0 -14.83519 2.1999245 -18.53183 6.5997734c-3.68042 4.380295 -5.520645 11.380947 -5.520645 21.001953l0 100.727234l20.769287 0l0 -47.57705l14.93248 0l20.769272 47.57705l24.076782 0l-23.76062 -51.712906c5.4800873 -2.4052505 10.084671 -6.7562103 13.813751 -13.052887c3.729065 -6.316231 5.5935974 -13.805748 5.5935974 -22.468567c0 -11.889374 -3.1129608 -21.705929 -9.338882 -29.449665c-6.2259064 -7.7632904 -14.6163025 -11.644936 -25.171188 -11.644936z" fill-rule="evenodd"/><path fill="#ffffff" d="m312.4602 59.691986c9.176727 0 15.159454 3.9696388 17.94815 11.908928c2.3833618 6.844208 3.5750427 16.035004 3.5750427 27.572388l0 6.6584396c0 9.132141 -0.6971741 16.64122 -2.0915222 22.527237c-0.7944641 3.7349854 -1.9375 6.7464294 -3.4291077 9.034363c-1.4916382 2.2683716 -3.5831604 4.1847534 -6.2745667 5.7491302c-2.6914062 1.5643921 -5.9584045 2.3465881 -9.800964 2.3465881c-3.826355 0 -7.109558 -0.81152344 -9.849609 -2.4345856c-2.7400513 -1.6230621 -4.807251 -3.578537 -6.201599 -5.8664703c-3.58313 -5.3971405 -5.374695 -15.849236 -5.374695 -31.356262l0 -6.6584396c0 -11.889366 1.1430359 -21.080162 3.4291077 -27.572388c2.7886963 -7.939289 8.811951 -11.908928 18.069763 -11.908928zm-0.21887207 -22.321907c-14.5920105 0 -25.252289 4.8691673 -31.980804 14.607502c-6.712311 9.718777 -10.068481 24.551159 -10.068481 44.49715l0 9.35701c0 21.88192 3.3075256 37.692047 9.922546 47.43039c6.631256 9.7187805 17.364502 14.578171 32.199677 14.578171c14.85141 0 25.63327 -4.8593903 32.34561 -14.578171c6.7285156 -9.738342 10.092773 -25.362694 10.092773 -46.87307l0 -9.738335c0 -19.82866 -3.4372253 -34.661045 -10.311676 -44.49715c-6.87442 -9.855663 -17.607666 -14.783497 -32.199646 -14.783497z" fill-rule="evenodd"/><path fill="#ffffff" d="m413.18716 60.77728c10.263031 0 15.394562 7.0886497 15.394562 21.265942c0 7.5677414 -1.3214111 12.97467 -3.9641724 16.22078c-2.6427612 3.2461166 -6.4529114 4.869171 -11.430389 4.869171l-19.431671 0l0 -42.355892zm-40.20096 -22.351234l0 128.32896l20.769287 0l0 -41.094604l20.477417 0c11.154785 0 19.796478 -3.695877 25.92511 -11.087624c6.128662 -7.3917465 9.192963 -18.234932 9.192963 -32.529556c0 -14.294617 -3.0643005 -25.137806 -9.192963 -32.529556c-6.1286316 -7.3917465 -14.770325 -11.08762 -25.92511 -11.08762z" fill-rule="evenodd"/><path fill="#ffffff" d="m466.8232 38.426044l0 128.32896l20.769287 0l0 -128.32896z" fill-rule="evenodd"/><path fill="#ffffff" d="m503.8849 38.426044l0 22.351234l28.38147 0l0 105.97772l20.769226 0l0 -105.97772l28.551697 0l0 -22.351234z" fill-rule="evenodd"/><path fill="#ffffff" d="m597.71686 38.426044l0 94.45012c0 12.6129 2.4157715 21.412598 7.2473755 26.399094c4.831543 4.986496 13.221924 7.4797516 25.171204 7.4797516l37.64734 0l0 -22.351242l-36.139526 0c-4.9937134 0 -8.439026 -0.9581909 -10.335999 -2.8745728c-1.8807373 -1.9163818 -2.821106 -5.4069214 -2.821106 -10.471634l0 -17.83406l33.02655 0l1.4835205 -22.351242l-34.51007 0l0 -30.094975l49.29663 0l0 -22.351234z" fill-rule="evenodd"/><path fill="#ffffff" d="m722.3354 37.37008c-7.7661743 0 -14.389343 1.554615 -19.869446 4.6638412c-13.943481 7.704624 -20.915222 26.751091 -20.915222 57.13938l0 10.823631c0 38.56224 13.59491 57.84337 40.784668 57.84337c12.354553 0 21.912292 -4.38031 28.673279 -13.140884c6.7771606 -8.780151 10.16571 -21.344177 10.16571 -37.692055l-19.261414 0c-0.7944946 9.738335 -2.5130615 16.924751 -5.1558228 21.559273c-2.6428223 4.6149445 -7.42572 6.9224243 -14.348816 6.9224243c-6.9230957 0 -12.030273 -2.522583 -15.321594 -7.567749c-3.1777954 -5.0451508 -4.7667236 -14.480385 -4.7667236 -28.305695l0 -11.175621c0 -4.908272 0.09729004 -8.809471 0.29187012 -11.703598c0.38909912 -9.014801 1.7834473 -15.379921 4.1829834 -19.095352c3.3886108 -5.2993736 8.568787 -7.9490585 15.540527 -7.9490585c5.982666 0 10.368408 1.8088264 13.1571045 5.426483c2.7886963 3.5980988 4.7261963 8.946358 5.812439 16.044785l19.431702 0c0 -14.177292 -3.5669556 -25.020481 -10.700806 -32.52956c-7.117676 -7.509075 -16.351135 -11.263615 -27.70044 -11.263615z" fill-rule="evenodd"/><path fill="#ffffff" d="m777.33276 38.426044l0 128.32896l20.769287 0l0 -51.8889l38.984924 0l0 51.8889l20.769287 0l0 -128.32896l-20.769287 0l0 54.264812l-38.984924 0l0 -54.264812z" fill-rule="evenodd"/><path stroke="#ffffff" stroke-width="1.0" stroke-linejoin="round" stroke-linecap="butt" d="m125.40041 60.77728c10.263039 0 15.394554 7.0886497 15.394554 21.265942c0 7.5677414 -1.3213806 12.97467 -3.964157 16.22078c-2.6427765 3.2461166 -6.4529266 4.869171 -11.430397 4.869171l-19.431679 0l0 -42.355892zm-40.20095 -22.351234l0 128.32896l20.769272 0l0 -41.094604l20.47744 0c11.154778 0 19.79647 -3.695877 25.925117 -11.087624c6.1286316 -7.3917465 9.192947 -18.234932 9.192947 -32.529556c0 -14.294617 -3.0643158 -25.137806 -9.192947 -32.529556c-6.128647 -7.3917465 -14.77034 -11.08762 -25.925117 -11.08762z" fill-rule="evenodd"/><path stroke="#ffffff" stroke-width="1.0" stroke-linejoin="round" stroke-linecap="butt" d="m219.38335 60.77728c4.572159 0 8.228256 1.6817207 10.968323 5.045162c2.7400513 3.3634415 4.110077 7.782852 4.110077 13.258217c0 5.4558105 -1.4186554 10.021881 -4.2559967 13.698196c-2.8373413 3.6567688 -6.444809 5.4851456 -10.822403 5.4851456l-19.57759 0l0 -26.135109c0 -7.5677414 3.0886383 -11.351612 9.265915 -11.351612zm-16.294403 -22.351234c-8.657913 0 -14.83519 2.1999245 -18.53183 6.5997734c-3.68042 4.380295 -5.520645 11.380947 -5.520645 21.001953l0 100.727234l20.769287 0l0 -47.57705l14.93248 0l20.769272 47.57705l24.076782 0l-23.76062 -51.712906c5.4800873 -2.4052505 10.084671 -6.7562103 13.813751 -13.052887c3.729065 -6.316231 5.5935974 -13.805748 5.5935974 -22.468567c0 -11.889374 -3.1129608 -21.705929 -9.338882 -29.449665c-6.2259064 -7.7632904 -14.6163025 -11.644936 -25.171188 -11.644936z" fill-rule="evenodd"/><path stroke="#ffffff" stroke-width="1.0" stroke-linejoin="round" stroke-linecap="butt" d="m312.4602 59.691986c9.176727 0 15.159454 3.9696388 17.94815 11.908928c2.3833618 6.844208 3.5750427 16.035004 3.5750427 27.572388l0 6.6584396c0 9.132141 -0.6971741 16.64122 -2.0915222 22.527237c-0.7944641 3.7349854 -1.9375 6.7464294 -3.4291077 9.034363c-1.4916382 2.2683716 -3.5831604 4.1847534 -6.2745667 5.7491302c-2.6914062 1.5643921 -5.9584045 2.3465881 -9.800964 2.3465881c-3.826355 0 -7.109558 -0.81152344 -9.849609 -2.4345856c-2.7400513 -1.6230621 -4.807251 -3.578537 -6.201599 -5.8664703c-3.58313 -5.3971405 -5.374695 -15.849236 -5.374695 -31.356262l0 -6.6584396c0 -11.889366 1.1430359 -21.080162 3.4291077 -27.572388c2.7886963 -7.939289 8.811951 -11.908928 18.069763 -11.908928zm-0.21887207 -22.321907c-14.5920105 0 -25.252289 4.8691673 -31.980804 14.607502c-6.712311 9.718777 -10.068481 24.551159 -10.068481 44.49715l0 9.35701c0 21.88192 3.3075256 37.692047 9.922546 47.43039c6.631256 9.7187805 17.364502 14.578171 32.199677 14.578171c14.85141 0 25.63327 -4.8593903 32.34561 -14.578171c6.7285156 -9.738342 10.092773 -25.362694 10.092773 -46.87307l0 -9.738335c0 -19.82866 -3.4372253 -34.661045 -10.311676 -44.49715c-6.87442 -9.855663 -17.607666 -14.783497 -32.199646 -14.783497z" fill-rule="evenodd"/><path stroke="#ffffff" stroke-width="1.0" stroke-linejoin="round" stroke-linecap="butt" d="m413.18716 60.77728c10.263031 0 15.394562 7.0886497 15.394562 21.265942c0 7.5677414 -1.3214111 12.97467 -3.9641724 16.22078c-2.6427612 3.2461166 -6.4529114 4.869171 -11.430389 4.869171l-19.431671 0l0 -42.355892zm-40.20096 -22.351234l0 128.32896l20.769287 0l0 -41.094604l20.477417 0c11.154785 0 19.796478 -3.695877 25.92511 -11.087624c6.128662 -7.3917465 9.192963 -18.234932 9.192963 -32.529556c0 -14.294617 -3.0643005 -25.137806 -9.192963 -32.529556c-6.1286316 -7.3917465 -14.770325 -11.08762 -25.92511 -11.08762z" fill-rule="evenodd"/><path stroke="#ffffff" stroke-width="1.0" stroke-linejoin="round" stroke-linecap="butt" d="m466.8232 38.426044l0 128.32896l20.769287 0l0 -128.32896z" fill-rule="evenodd"/><path stroke="#ffffff" stroke-width="1.0" stroke-linejoin="round" stroke-linecap="butt" d="m503.8849 38.426044l0 22.351234l28.38147 0l0 105.97772l20.769226 0l0 -105.97772l28.551697 0l0 -22.351234z" fill-rule="evenodd"/><path stroke="#ffffff" stroke-width="1.0" stroke-linejoin="round" stroke-linecap="butt" d="m597.71686 38.426044l0 94.45012c0 12.6129 2.4157715 21.412598 7.2473755 26.399094c4.831543 4.986496 13.221924 7.4797516 25.171204 7.4797516l37.64734 0l0 -22.351242l-36.139526 0c-4.9937134 0 -8.439026 -0.9581909 -10.335999 -2.8745728c-1.8807373 -1.9163818 -2.821106 -5.4069214 -2.821106 -10.471634l0 -17.83406l33.02655 0l1.4835205 -22.351242l-34.51007 0l0 -30.094975l49.29663 0l0 -22.351234z" fill-rule="evenodd"/><path stroke="#ffffff" stroke-width="1.0" stroke-linejoin="round" stroke-linecap="butt" d="m722.3354 37.37008c-7.7661743 0 -14.389343 1.554615 -19.869446 4.6638412c-13.943481 7.704624 -20.915222 26.751091 -20.915222 57.13938l0 10.823631c0 38.56224 13.59491 57.84337 40.784668 57.84337c12.354553 0 21.912292 -4.38031 28.673279 -13.140884c6.7771606 -8.780151 10.16571 -21.344177 10.16571 -37.692055l-19.261414 0c-0.7944946 9.738335 -2.5130615 16.924751 -5.1558228 21.559273c-2.6428223 4.6149445 -7.42572 6.9224243 -14.348816 6.9224243c-6.9230957 0 -12.030273 -2.522583 -15.321594 -7.567749c-3.1777954 -5.0451508 -4.7667236 -14.480385 -4.7667236 -28.305695l0 -11.175621c0 -4.908272 0.09729004 -8.809471 0.29187012 -11.703598c0.38909912 -9.014801 1.7834473 -15.379921 4.1829834 -19.095352c3.3886108 -5.2993736 8.568787 -7.9490585 15.540527 -7.9490585c5.982666 0 10.368408 1.8088264 13.1571045 5.426483c2.7886963 3.5980988 4.7261963 8.946358 5.812439 16.044785l19.431702 0c0 -14.177292 -3.5669556 -25.020481 -10.700806 -32.52956c-7.117676 -7.509075 -16.351135 -11.263615 -27.70044 -11.263615z" fill-rule="evenodd"/><path stroke="#ffffff" stroke-width="1.0" stroke-linejoin="round" stroke-linecap="butt" d="m777.33276 38.426044l0 128.32896l20.769287 0l0 -51.8889l38.984924 0l0 51.8889l20.769287 0l0 -128.32896l-20.769287 0l0 54.264812l-38.984924 0l0 -54.264812z" fill-rule="evenodd"/><path fill="#000000" fill-opacity="0.0" d="m83.19948 185.80052l776.0 -0.22047424" fill-rule="evenodd"/><path stroke="#ffffff" stroke-width="12.0" stroke-linejoin="round" stroke-linecap="butt" d="m83.19948 185.80052l776.0 -0.22047424" fill-rule="evenodd"/></g></svg>